<svg width="199" height="20" viewBox="0 0 199 20" fill="none" xmlns="http://www.w3.org/2000/svg">
<path d="M17.0146 1.21094H17.7881V19H17.0146V1.21094ZM-0.000976562 1.21094H0.772461V19H-0.000976562V1.21094ZM15.4678 1.21094H16.2412V19H15.4678V1.21094ZM13.9209 1.21094H14.6943V19H13.9209V1.21094ZM12.374 1.21094H13.1475V19H12.374V12.0283H5.41309V19H4.63965V1.21094H5.41309V8.16113H12.374V1.21094ZM3.09277 1.21094H3.86621V19H3.09277V1.21094ZM1.5459 1.21094H2.31934V19H1.5459V1.21094ZM12.374 11.2549V10.4814H5.41309V11.2549H12.374ZM12.374 9.70801V8.93457H5.41309V9.70801H12.374ZM25.7373 9.08496C25.1357 9.68652 24.835 10.4134 24.835 11.2656C24.835 12.1178 25.1357 12.8483 25.7373 13.457C26.346 14.0586 27.0765 14.3594 27.9287 14.3594C28.7809 14.3594 29.5078 14.0586 30.1094 13.457C30.7181 12.8483 31.0225 12.1178 31.0225 11.2656C31.0225 10.4134 30.7181 9.68652 30.1094 9.08496C29.5078 8.47624 28.7809 8.17188 27.9287 8.17188C27.0765 8.17188 26.346 8.47624 25.7373 9.08496ZM25.1895 14.0049C24.4375 13.2458 24.0615 12.3327 24.0615 11.2656C24.0615 10.1986 24.4375 9.28906 25.1895 8.53711C25.9486 7.77799 26.8617 7.39844 27.9287 7.39844C28.9958 7.39844 29.9053 7.77799 30.6572 8.53711C31.4163 9.28906 31.7959 10.1986 31.7959 11.2656C31.7959 12.3327 31.4163 13.2458 30.6572 14.0049C29.9053 14.7568 28.9958 15.1328 27.9287 15.1328C26.8617 15.1328 25.9486 14.7568 25.1895 14.0049ZM24.6416 7.98926C23.7393 8.89876 23.2881 9.99089 23.2881 11.2656C23.2881 12.5404 23.7393 13.6325 24.6416 14.542C25.5511 15.4515 26.6468 15.9062 27.9287 15.9062C29.2106 15.9062 30.3027 15.4515 31.2051 14.542C32.1146 13.6325 32.5693 12.5404 32.5693 11.2656C32.5693 9.99089 32.1146 8.89876 31.2051 7.98926C30.3027 7.07975 29.2106 6.625 27.9287 6.625C26.6468 6.625 25.5511 7.07975 24.6416 7.98926ZM23.2344 13.9834C22.7546 13.1527 22.5146 12.2467 22.5146 11.2656C22.5146 10.2845 22.7546 9.37858 23.2344 8.54785C23.7214 7.71712 24.3802 7.06185 25.2109 6.58203C26.0417 6.09505 26.9476 5.85156 27.9287 5.85156C28.9098 5.85156 29.8158 6.09505 30.6465 6.58203C31.4772 7.06185 32.1325 7.71712 32.6123 8.54785C33.0993 9.37858 33.3428 10.2845 33.3428 11.2656C33.3428 12.2467 33.0993 13.1527 32.6123 13.9834C32.1325 14.8141 31.4772 15.473 30.6465 15.96C29.8158 16.4398 28.9098 16.6797 27.9287 16.6797C26.9476 16.6797 26.0417 16.4398 25.2109 15.96C24.3802 15.473 23.7214 14.8141 23.2344 13.9834ZM22.2246 8.87012C21.9023 9.62923 21.7412 10.4277 21.7412 11.2656C21.7412 12.1035 21.9023 12.9056 22.2246 13.6719C22.554 14.431 22.9945 15.0898 23.5459 15.6484C24.1045 16.1999 24.7633 16.6403 25.5225 16.9697C26.2887 17.292 27.0908 17.4531 27.9287 17.4531C28.7666 17.4531 29.5651 17.292 30.3242 16.9697C31.0905 16.6403 31.7493 16.1999 32.3008 15.6484C32.8594 15.0898 33.2998 14.431 33.6221 13.6719C33.9515 12.9056 34.1162 12.1035 34.1162 11.2656C34.1162 10.4277 33.9515 9.62923 33.6221 8.87012C33.2998 8.10384 32.8594 7.44499 32.3008 6.89355C31.7493 6.33496 31.0905 5.89453 30.3242 5.57227C29.5651 5.24284 28.7666 5.07812 27.9287 5.07812C27.0908 5.07812 26.2887 5.24284 25.5225 5.57227C24.7633 5.89453 24.1045 6.33496 23.5459 6.89355C22.9945 7.44499 22.554 8.10384 22.2246 8.87012ZM21.5156 13.9727C21.1504 13.1133 20.9678 12.2109 20.9678 11.2656C20.9678 10.3203 21.1504 9.41797 21.5156 8.55859C21.888 7.69922 22.3822 6.96159 22.998 6.3457C23.6211 5.72266 24.3623 5.22852 25.2217 4.86328C26.0811 4.49089 26.9834 4.30469 27.9287 4.30469C28.874 4.30469 29.7764 4.49089 30.6357 4.86328C31.4951 5.22852 32.2327 5.72266 32.8486 6.3457C33.4717 6.96159 33.9658 7.69922 34.3311 8.55859C34.7035 9.41797 34.8896 10.3203 34.8896 11.2656C34.8896 12.2109 34.7035 13.1133 34.3311 13.9727C33.9658 14.832 33.4717 15.5732 32.8486 16.1963C32.2327 16.8122 31.4951 17.3063 30.6357 17.6787C29.7764 18.0439 28.874 18.2266 27.9287 18.2266C26.9834 18.2266 26.0811 18.0439 25.2217 17.6787C24.3623 17.3063 23.6211 16.8122 22.998 16.1963C22.3822 15.5732 21.888 14.832 21.5156 13.9727ZM20.8066 8.26855C20.3984 9.22103 20.1943 10.2201 20.1943 11.2656C20.1943 12.3112 20.3984 13.3138 20.8066 14.2734C21.2148 15.2259 21.7627 16.0495 22.4502 16.7441C23.1449 17.4316 23.9684 17.9795 24.9209 18.3877C25.8805 18.7959 26.8831 19 27.9287 19C28.9743 19 29.9733 18.7959 30.9258 18.3877C31.8854 17.9795 32.709 17.4316 33.3965 16.7441C34.0911 16.0495 34.6426 15.2259 35.0508 14.2734C35.459 13.3138 35.6631 12.3112 35.6631 11.2656C35.6631 10.2201 35.459 9.22103 35.0508 8.26855C34.6426 7.30892 34.0911 6.48535 33.3965 5.79785C32.709 5.10319 31.8854 4.55176 30.9258 4.14355C29.9733 3.73535 28.9743 3.53125 27.9287 3.53125C26.8831 3.53125 25.8805 3.73535 24.9209 4.14355C23.9684 4.55176 23.1449 5.10319 22.4502 5.79785C21.7627 6.48535 21.2148 7.30892 20.8066 8.26855ZM20.0977 14.5742C19.6465 13.5215 19.4209 12.4186 19.4209 11.2656C19.4209 10.1126 19.6465 9.01335 20.0977 7.96777C20.5488 6.91504 21.154 6.00911 21.9131 5.25C22.6722 4.49089 23.5745 3.88574 24.6201 3.43457C25.6729 2.9834 26.7757 2.75781 27.9287 2.75781C29.0817 2.75781 30.181 2.9834 31.2266 3.43457C32.2793 3.88574 33.1852 4.49089 33.9443 5.25C34.7035 6.00911 35.3086 6.91504 35.7598 7.96777C36.2109 9.01335 36.4365 10.1126 36.4365 11.2656C36.4365 12.4186 36.2109 13.5215 35.7598 14.5742C35.3086 15.6198 34.7035 16.5221 33.9443 17.2812C33.1852 18.0404 32.2793 18.6455 31.2266 19.0967C30.181 19.5479 29.0817 19.7734 27.9287 19.7734C26.7757 19.7734 25.6729 19.5479 24.6201 19.0967C23.5745 18.6455 22.6722 18.0404 21.9131 17.2812C21.154 16.5221 20.5488 15.6198 20.0977 14.5742ZM44.1816 11.7168H47.458C48.1025 11.7168 48.6504 11.5234 49.1016 11.1367C49.5527 10.75 49.7783 10.2057 49.7783 9.50391C49.7783 8.95964 49.542 8.47266 49.0693 8.04297C48.5967 7.61328 48.0596 7.39844 47.458 7.39844H42.0439V19H41.2705V6.625H47.458C48.2816 6.625 49.0013 6.91504 49.6172 7.49512C50.2402 8.0752 50.5518 8.74479 50.5518 9.50391C50.5518 10.4134 50.251 11.1403 49.6494 11.6846C49.0479 12.2217 48.3174 12.4902 47.458 12.4902H44.1816V11.7168ZM44.1816 13.2637H47.458C48.5179 13.2637 49.4274 12.9128 50.1865 12.2109C50.9456 11.5091 51.3252 10.6068 51.3252 9.50391C51.3252 8.53711 50.9385 7.68848 50.165 6.95801C49.3916 6.22038 48.4893 5.85156 47.458 5.85156H40.4971V19H39.7236V5.07812H47.458C48.7041 5.07812 49.7891 5.52214 50.7129 6.41016C51.6367 7.29102 52.0986 8.32227 52.0986 9.50391C52.0986 10.793 51.6403 11.8708 50.7236 12.7373C49.8141 13.6038 48.7256 14.0371 47.458 14.0371H44.1816V13.2637ZM44.1816 14.8105H47.458C48.4248 14.8105 49.32 14.5814 50.1436 14.123C50.9743 13.6647 51.6367 13.0273 52.1309 12.2109C52.625 11.3945 52.8721 10.4922 52.8721 9.50391C52.8721 8.5944 52.625 7.73861 52.1309 6.93652C51.6439 6.13444 50.9814 5.49707 50.1436 5.02441C49.3128 4.5446 48.4176 4.30469 47.458 4.30469H38.9502V19H38.1768V3.53125H47.458C48.2744 3.53125 49.0622 3.69238 49.8213 4.01465C50.5876 4.33691 51.25 4.77018 51.8086 5.31445C52.3672 5.85156 52.8112 6.48893 53.1406 7.22656C53.4772 7.95703 53.6455 8.71615 53.6455 9.50391C53.6455 10.4277 53.4808 11.2764 53.1514 12.0498C52.8219 12.8232 52.3743 13.4678 51.8086 13.9834C51.2428 14.4919 50.584 14.8857 49.832 15.165C49.0872 15.4443 48.2959 15.584 47.458 15.584H44.1816V14.8105ZM43.5908 19H42.8174V8.17188H47.458C47.8805 8.17188 48.2422 8.30436 48.543 8.56934C48.8509 8.82715 49.0049 9.13867 49.0049 9.50391C49.0049 10.4635 48.4893 10.9434 47.458 10.9434H44.1816V10.1699H47.458C47.9736 10.1699 48.2314 9.94792 48.2314 9.50391C48.2314 9.34635 48.1562 9.21387 48.0059 9.10645C47.8555 8.99902 47.6729 8.94531 47.458 8.94531H43.5908V19ZM59.2529 19H58.4795V3.53125H59.2529V19ZM57.7061 19H56.9326V3.53125H57.7061V19ZM56.1592 19H55.3857V3.53125H56.1592V19ZM60.7998 15.1328H68.2012V15.9062H60.7998V16.6797H68.2012V17.4531H60.7998V18.2266H68.2012V19H60.0264V3.53125H68.2012V4.30469H60.7998V5.07812H68.2012V5.85156H60.7998V6.625H68.2012V7.39844H60.7998V9.32129H67.7715V10.0947H60.7998V10.8682H67.7715V11.6416H60.7998V12.415H67.7715V13.1885H60.7998V15.1328ZM70.0596 3.53125H70.833V19H70.0596V3.53125ZM74.7002 3.53125H75.4736V15.1328H81.1777V15.9062H75.4736V16.6797H81.1777V17.4531H75.4736V18.2266H81.1777V19H74.7002V3.53125ZM73.1533 3.53125H73.9268V19H73.1533V3.53125ZM71.6064 3.53125H72.3799V19H71.6064V3.53125ZM86.7529 19H85.9795V3.53125H86.7529V19ZM85.2061 19H84.4326V3.53125H85.2061V19ZM83.6592 19H82.8857V3.53125H83.6592V19ZM88.2998 15.1328H95.7012V15.9062H88.2998V16.6797H95.7012V17.4531H88.2998V18.2266H95.7012V19H87.5264V3.53125H95.7012V4.30469H88.2998V5.07812H95.7012V5.85156H88.2998V6.625H95.7012V7.39844H88.2998V9.32129H95.2715V10.0947H88.2998V10.8682H95.2715V11.6416H88.2998V12.415H95.2715V13.1885H88.2998V15.1328ZM104.671 11.6416H103.446C101.942 11.6416 100.786 11.3372 99.9766 10.7285C99.1673 10.1126 98.7627 9.26758 98.7627 8.19336C98.7627 7.19076 99.2389 6.35645 100.191 5.69043C101.144 5.01725 102.479 4.68066 104.198 4.68066C105.344 4.68066 106.411 4.83822 107.399 5.15332C108.395 5.46842 109.222 5.91243 109.881 6.48535L109.279 6.96875C108.692 6.48893 107.954 6.11654 107.066 5.85156C106.178 5.58659 105.222 5.4541 104.198 5.4541C102.687 5.4541 101.531 5.71191 100.729 6.22754C99.9336 6.74316 99.5361 7.39844 99.5361 8.19336C99.5361 9.05273 99.862 9.71517 100.514 10.1807C101.173 10.639 102.15 10.8682 103.446 10.8682H104.628C106.153 10.8682 107.321 11.1761 108.13 11.792C108.946 12.4007 109.354 13.2422 109.354 14.3164C109.354 15.319 108.878 16.1569 107.926 16.8301C106.973 17.4961 105.638 17.8291 103.919 17.8291C102.773 17.8291 101.702 17.6715 100.707 17.3564C99.7188 17.0413 98.8952 16.5973 98.2363 16.0244L98.8379 15.541C99.4251 16.0208 100.163 16.3932 101.051 16.6582C101.939 16.9232 102.895 17.0557 103.919 17.0557C105.43 17.0557 106.583 16.7979 107.378 16.2822C108.18 15.7666 108.581 15.1113 108.581 14.3164C108.581 13.457 108.252 12.7982 107.593 12.3398C106.941 11.8743 105.967 11.6416 104.671 11.6416ZM104.671 13.1885H103.446C101.455 13.1885 99.9193 12.7373 98.8379 11.835C97.7565 10.9255 97.2158 9.71159 97.2158 8.19336C97.2158 7.4987 97.3698 6.84701 97.6777 6.23828C97.9857 5.62956 98.4261 5.09603 98.999 4.6377C99.5791 4.1722 100.317 3.80697 101.212 3.54199C102.107 3.26986 103.103 3.13379 104.198 3.13379C105.58 3.13379 106.873 3.34505 108.076 3.76758C109.279 4.18294 110.282 4.7666 111.084 5.51855L110.461 5.98047C109.73 5.32161 108.817 4.81315 107.722 4.45508C106.626 4.08984 105.451 3.90723 104.198 3.90723C102.265 3.90723 100.746 4.31543 99.6436 5.13184C98.5407 5.94824 97.9893 6.96875 97.9893 8.19336C97.9893 9.48958 98.4619 10.5173 99.4072 11.2764C100.353 12.0355 101.699 12.415 103.446 12.415H104.628C106.748 12.415 107.808 13.0488 107.808 14.3164C107.808 14.8893 107.482 15.362 106.83 15.7344C106.186 16.0996 105.215 16.2822 103.919 16.2822C103.009 16.2822 102.164 16.1784 101.384 15.9707C100.603 15.7559 99.9587 15.4515 99.4502 15.0576L100.062 14.585C100.958 15.2008 102.243 15.5088 103.919 15.5088C104.993 15.5088 105.781 15.3978 106.282 15.1758C106.784 14.9538 107.034 14.6673 107.034 14.3164C107.034 13.9082 106.859 13.6182 106.508 13.4463C106.157 13.2744 105.545 13.1885 104.671 13.1885ZM104.671 10.0947H103.446C101.355 10.0947 100.31 9.46094 100.31 8.19336C100.31 7.62044 100.632 7.15137 101.276 6.78613C101.928 6.41374 102.902 6.22754 104.198 6.22754C105.108 6.22754 105.953 6.33496 106.733 6.5498C107.514 6.75749 108.159 7.05827 108.667 7.45215L108.055 7.9248C107.16 7.30892 105.874 7.00098 104.198 7.00098C103.124 7.00098 102.336 7.11198 101.835 7.33398C101.334 7.55599 101.083 7.84245 101.083 8.19336C101.083 8.60156 101.258 8.8916 101.609 9.06348C101.96 9.23535 102.573 9.32129 103.446 9.32129H104.671C106.662 9.32129 108.198 9.77604 109.279 10.6855C110.361 11.5879 110.901 12.7982 110.901 14.3164C110.901 15.0111 110.747 15.6628 110.439 16.2715C110.132 16.8802 109.688 17.4173 109.107 17.8828C108.535 18.3411 107.8 18.7064 106.905 18.9785C106.01 19.2435 105.015 19.376 103.919 19.376C102.537 19.376 101.244 19.1683 100.041 18.7529C98.8379 18.3304 97.8353 17.7432 97.0332 16.9912L97.6562 16.5293C98.3867 17.1882 99.2998 17.7002 100.396 18.0654C101.491 18.4235 102.666 18.6025 103.919 18.6025C105.853 18.6025 107.371 18.1943 108.474 17.3779C109.576 16.5615 110.128 15.541 110.128 14.3164C110.128 13.0202 109.655 11.9925 108.71 11.2334C107.765 10.4743 106.418 10.0947 104.671 10.0947ZM119.71 11.6416H118.485C116.981 11.6416 115.825 11.3372 115.016 10.7285C114.206 10.1126 113.802 9.26758 113.802 8.19336C113.802 7.19076 114.278 6.35645 115.23 5.69043C116.183 5.01725 117.519 4.68066 119.237 4.68066C120.383 4.68066 121.45 4.83822 122.438 5.15332C123.434 5.46842 124.261 5.91243 124.92 6.48535L124.318 6.96875C123.731 6.48893 122.993 6.11654 122.105 5.85156C121.217 5.58659 120.261 5.4541 119.237 5.4541C117.726 5.4541 116.57 5.71191 115.768 6.22754C114.973 6.74316 114.575 7.39844 114.575 8.19336C114.575 9.05273 114.901 9.71517 115.553 10.1807C116.212 10.639 117.189 10.8682 118.485 10.8682H119.667C121.192 10.8682 122.36 11.1761 123.169 11.792C123.985 12.4007 124.394 13.2422 124.394 14.3164C124.394 15.319 123.917 16.1569 122.965 16.8301C122.012 17.4961 120.677 17.8291 118.958 17.8291C117.812 17.8291 116.742 17.6715 115.746 17.3564C114.758 17.0413 113.934 16.5973 113.275 16.0244L113.877 15.541C114.464 16.0208 115.202 16.3932 116.09 16.6582C116.978 16.9232 117.934 17.0557 118.958 17.0557C120.469 17.0557 121.622 16.7979 122.417 16.2822C123.219 15.7666 123.62 15.1113 123.62 14.3164C123.62 13.457 123.291 12.7982 122.632 12.3398C121.98 11.8743 121.006 11.6416 119.71 11.6416ZM119.71 13.1885H118.485C116.494 13.1885 114.958 12.7373 113.877 11.835C112.796 10.9255 112.255 9.71159 112.255 8.19336C112.255 7.4987 112.409 6.84701 112.717 6.23828C113.025 5.62956 113.465 5.09603 114.038 4.6377C114.618 4.1722 115.356 3.80697 116.251 3.54199C117.146 3.26986 118.142 3.13379 119.237 3.13379C120.619 3.13379 121.912 3.34505 123.115 3.76758C124.318 4.18294 125.321 4.7666 126.123 5.51855L125.5 5.98047C124.77 5.32161 123.856 4.81315 122.761 4.45508C121.665 4.08984 120.491 3.90723 119.237 3.90723C117.304 3.90723 115.785 4.31543 114.683 5.13184C113.58 5.94824 113.028 6.96875 113.028 8.19336C113.028 9.48958 113.501 10.5173 114.446 11.2764C115.392 12.0355 116.738 12.415 118.485 12.415H119.667C121.787 12.415 122.847 13.0488 122.847 14.3164C122.847 14.8893 122.521 15.362 121.869 15.7344C121.225 16.0996 120.254 16.2822 118.958 16.2822C118.049 16.2822 117.203 16.1784 116.423 15.9707C115.642 15.7559 114.998 15.4515 114.489 15.0576L115.102 14.585C115.997 15.2008 117.282 15.5088 118.958 15.5088C120.032 15.5088 120.82 15.3978 121.321 15.1758C121.823 14.9538 122.073 14.6673 122.073 14.3164C122.073 13.9082 121.898 13.6182 121.547 13.4463C121.196 13.2744 120.584 13.1885 119.71 13.1885ZM119.71 10.0947H118.485C116.394 10.0947 115.349 9.46094 115.349 8.19336C115.349 7.62044 115.671 7.15137 116.315 6.78613C116.967 6.41374 117.941 6.22754 119.237 6.22754C120.147 6.22754 120.992 6.33496 121.772 6.5498C122.553 6.75749 123.198 7.05827 123.706 7.45215L123.094 7.9248C122.199 7.30892 120.913 7.00098 119.237 7.00098C118.163 7.00098 117.375 7.11198 116.874 7.33398C116.373 7.55599 116.122 7.84245 116.122 8.19336C116.122 8.60156 116.298 8.8916 116.648 9.06348C116.999 9.23535 117.612 9.32129 118.485 9.32129H119.71C121.701 9.32129 123.237 9.77604 124.318 10.6855C125.4 11.5879 125.94 12.7982 125.94 14.3164C125.94 15.0111 125.786 15.6628 125.479 16.2715C125.171 16.8802 124.727 17.4173 124.146 17.8828C123.574 18.3411 122.84 18.7064 121.944 18.9785C121.049 19.2435 120.054 19.376 118.958 19.376C117.576 19.376 116.283 19.1683 115.08 18.7529C113.877 18.3304 112.874 17.7432 112.072 16.9912L112.695 16.5293C113.426 17.1882 114.339 17.7002 115.435 18.0654C116.53 18.4235 117.705 18.6025 118.958 18.6025C120.892 18.6025 122.41 18.1943 123.513 17.3779C124.616 16.5615 125.167 15.541 125.167 14.3164C125.167 13.0202 124.694 11.9925 123.749 11.2334C122.804 10.4743 121.457 10.0947 119.71 10.0947ZM136.285 7.09766C135.454 7.92839 135.039 8.93099 135.039 10.1055C135.039 11.2799 135.454 12.2826 136.285 13.1133C137.116 13.944 138.118 14.3594 139.293 14.3594C140.467 14.3594 141.47 13.944 142.301 13.1133C143.132 12.2826 143.547 11.2799 143.547 10.1055C143.547 8.93099 143.132 7.92839 142.301 7.09766C141.47 6.26693 140.467 5.85156 139.293 5.85156C138.118 5.85156 137.116 6.26693 136.285 7.09766ZM134.663 12.0605C134.398 11.4375 134.266 10.7858 134.266 10.1055C134.266 9.42513 134.398 8.77702 134.663 8.16113C134.928 7.53809 135.286 7.00098 135.737 6.5498C136.188 6.09863 136.722 5.74056 137.338 5.47559C137.961 5.21061 138.613 5.07812 139.293 5.07812C139.973 5.07812 140.621 5.21061 141.237 5.47559C141.86 5.74056 142.397 6.09863 142.849 6.5498C143.3 7.00098 143.658 7.53809 143.923 8.16113C144.188 8.77702 144.32 9.42513 144.32 10.1055C144.32 10.7858 144.188 11.4375 143.923 12.0605C143.658 12.6764 143.3 13.21 142.849 13.6611C142.397 14.1123 141.86 14.4704 141.237 14.7354C140.621 15.0003 139.973 15.1328 139.293 15.1328C138.613 15.1328 137.961 15.0003 137.338 14.7354C136.722 14.4704 136.188 14.1123 135.737 13.6611C135.286 13.21 134.928 12.6764 134.663 12.0605ZM134.266 7.19434C133.75 8.08236 133.492 9.05273 133.492 10.1055C133.492 11.1582 133.75 12.1286 134.266 13.0166C134.788 13.9046 135.494 14.61 136.382 15.1328C137.27 15.6484 138.24 15.9062 139.293 15.9062C140.346 15.9062 141.316 15.6484 142.204 15.1328C143.092 14.61 143.794 13.9046 144.31 13.0166C144.832 12.1286 145.094 11.1582 145.094 10.1055C145.094 9.05273 144.832 8.08236 144.31 7.19434C143.794 6.30632 143.092 5.60449 142.204 5.08887C141.316 4.56608 140.346 4.30469 139.293 4.30469C138.24 4.30469 137.27 4.56608 136.382 5.08887C135.494 5.60449 134.788 6.30632 134.266 7.19434ZM133.6 13.4033C133.012 12.3936 132.719 11.2943 132.719 10.1055C132.719 8.91667 133.012 7.81738 133.6 6.80762C134.187 5.79785 134.985 4.99935 135.995 4.41211C137.005 3.82487 138.104 3.53125 139.293 3.53125C140.482 3.53125 141.581 3.82487 142.591 4.41211C143.601 4.99935 144.399 5.79785 144.986 6.80762C145.574 7.81738 145.867 8.91667 145.867 10.1055C145.867 11.2943 145.574 12.3936 144.986 13.4033C144.399 14.4131 143.601 15.2116 142.591 15.7988C141.581 16.3861 140.482 16.6797 139.293 16.6797C138.104 16.6797 137.005 16.3861 135.995 15.7988C134.985 15.2116 134.187 14.4131 133.6 13.4033ZM132.525 7.24805C132.139 8.15755 131.945 9.11003 131.945 10.1055C131.945 11.1009 132.139 12.0534 132.525 12.9629C132.912 13.8724 133.431 14.6566 134.083 15.3154C134.742 15.9671 135.526 16.4863 136.436 16.873C137.345 17.2598 138.298 17.4531 139.293 17.4531C140.288 17.4531 141.241 17.2598 142.15 16.873C143.06 16.4863 143.84 15.9671 144.492 15.3154C145.151 14.6566 145.674 13.8724 146.061 12.9629C146.447 12.0534 146.641 11.1009 146.641 10.1055C146.641 9.11003 146.447 8.15755 146.061 7.24805C145.674 6.33854 145.151 5.55794 144.492 4.90625C143.84 4.2474 143.06 3.72461 142.15 3.33789C141.241 2.95117 140.288 2.75781 139.293 2.75781C138.298 2.75781 137.345 2.95117 136.436 3.33789C135.526 3.72461 134.742 4.2474 134.083 4.90625C133.431 5.55794 132.912 6.33854 132.525 7.24805ZM132.257 14.1768C131.534 12.9307 131.172 11.5736 131.172 10.1055C131.172 8.63737 131.534 7.28027 132.257 6.03418C132.987 4.78809 133.976 3.80339 135.222 3.08008C136.468 2.34961 137.825 1.98438 139.293 1.98438C140.761 1.98438 142.118 2.34961 143.364 3.08008C144.61 3.80339 145.595 4.78809 146.318 6.03418C147.049 7.28027 147.414 8.63737 147.414 10.1055C147.414 11.5736 147.049 12.9307 146.318 14.1768C145.595 15.4229 144.61 16.4111 143.364 17.1416C142.118 17.8649 140.761 18.2266 139.293 18.2266C137.825 18.2266 136.468 17.8649 135.222 17.1416C133.976 16.4111 132.987 15.4229 132.257 14.1768ZM131.097 6.65723C130.631 7.75293 130.398 8.90234 130.398 10.1055C130.398 11.3086 130.631 12.4616 131.097 13.5645C131.569 14.6602 132.203 15.6055 132.998 16.4004C133.793 17.1953 134.738 17.8291 135.834 18.3018C136.937 18.7673 138.09 19 139.293 19C140.496 19 141.646 18.7673 142.741 18.3018C143.844 17.8291 144.793 17.1953 145.588 16.4004C146.383 15.6055 147.013 14.6602 147.479 13.5645C147.951 12.4616 148.188 11.3086 148.188 10.1055C148.188 8.90234 147.951 7.75293 147.479 6.65723C147.013 5.55436 146.383 4.60547 145.588 3.81055C144.793 3.01562 143.844 2.38542 142.741 1.91992C141.646 1.44727 140.496 1.21094 139.293 1.21094C138.09 1.21094 136.937 1.44727 135.834 1.91992C134.738 2.38542 133.793 3.01562 132.998 3.81055C132.203 4.60547 131.569 5.55436 131.097 6.65723ZM130.388 13.8652C129.879 12.6693 129.625 11.416 129.625 10.1055C129.625 8.79492 129.879 7.54525 130.388 6.35645C130.903 5.16048 131.591 4.13281 132.45 3.27344C133.317 2.4069 134.344 1.7194 135.533 1.21094C136.729 0.695312 137.982 0.4375 139.293 0.4375C140.604 0.4375 141.853 0.695312 143.042 1.21094C144.238 1.7194 145.266 2.4069 146.125 3.27344C146.992 4.13281 147.679 5.16048 148.188 6.35645C148.703 7.54525 148.961 8.79492 148.961 10.1055C148.961 11.416 148.703 12.6693 148.188 13.8652C147.679 15.054 146.992 16.0817 146.125 16.9482C145.266 17.8076 144.238 18.4915 143.042 19C141.853 19.5156 140.604 19.7734 139.293 19.7734C137.982 19.7734 136.729 19.5156 135.533 19C134.344 18.4915 133.317 17.8076 132.45 16.9482C131.591 16.0817 130.903 15.054 130.388 13.8652ZM156.566 11.7168H159.843C160.487 11.7168 161.035 11.5234 161.486 11.1367C161.938 10.75 162.163 10.2057 162.163 9.50391C162.163 8.95964 161.927 8.47266 161.454 8.04297C160.981 7.61328 160.444 7.39844 159.843 7.39844H154.429V19H153.655V6.625H159.843C160.666 6.625 161.386 6.91504 162.002 7.49512C162.625 8.0752 162.937 8.74479 162.937 9.50391C162.937 10.4134 162.636 11.1403 162.034 11.6846C161.433 12.2217 160.702 12.4902 159.843 12.4902H156.566V11.7168ZM156.566 13.2637H159.843C160.903 13.2637 161.812 12.9128 162.571 12.2109C163.33 11.5091 163.71 10.6068 163.71 9.50391C163.71 8.53711 163.323 7.68848 162.55 6.95801C161.776 6.22038 160.874 5.85156 159.843 5.85156H152.882V19H152.108V5.07812H159.843C161.089 5.07812 162.174 5.52214 163.098 6.41016C164.021 7.29102 164.483 8.32227 164.483 9.50391C164.483 10.793 164.025 11.8708 163.108 12.7373C162.199 13.6038 161.11 14.0371 159.843 14.0371H156.566V13.2637ZM156.566 14.8105H159.843C160.81 14.8105 161.705 14.5814 162.528 14.123C163.359 13.6647 164.021 13.0273 164.516 12.2109C165.01 11.3945 165.257 10.4922 165.257 9.50391C165.257 8.5944 165.01 7.73861 164.516 6.93652C164.029 6.13444 163.366 5.49707 162.528 5.02441C161.698 4.5446 160.802 4.30469 159.843 4.30469H151.335V19H150.562V3.53125H159.843C160.659 3.53125 161.447 3.69238 162.206 4.01465C162.972 4.33691 163.635 4.77018 164.193 5.31445C164.752 5.85156 165.196 6.48893 165.525 7.22656C165.862 7.95703 166.03 8.71615 166.03 9.50391C166.03 10.4277 165.866 11.2764 165.536 12.0498C165.207 12.8232 164.759 13.4678 164.193 13.9834C163.628 14.4919 162.969 14.8857 162.217 15.165C161.472 15.4443 160.681 15.584 159.843 15.584H156.566V14.8105ZM155.976 19H155.202V8.17188H159.843C160.265 8.17188 160.627 8.30436 160.928 8.56934C161.236 8.82715 161.39 9.13867 161.39 9.50391C161.39 10.4635 160.874 10.9434 159.843 10.9434H156.566V10.1699H159.843C160.358 10.1699 160.616 9.94792 160.616 9.50391C160.616 9.34635 160.541 9.21387 160.391 9.10645C160.24 8.99902 160.058 8.94531 159.843 8.94531H155.976V19ZM177.922 12.1465V3.53125H178.695V12.1465C178.695 12.9629 178.38 13.6647 177.75 14.252C177.127 14.8392 176.375 15.1328 175.494 15.1328C174.613 15.1328 173.858 14.8392 173.228 14.252C172.604 13.6647 172.293 12.9629 172.293 12.1465V3.53125H173.066V12.1465C173.066 12.7552 173.303 13.278 173.775 13.7148C174.255 14.1445 174.828 14.3594 175.494 14.3594C176.16 14.3594 176.729 14.1445 177.202 13.7148C177.682 13.278 177.922 12.7552 177.922 12.1465ZM179.469 12.1465V3.53125H180.242V12.1465C180.242 13.3997 179.777 14.4704 178.846 15.3584C177.915 16.2393 176.798 16.6797 175.494 16.6797C174.191 16.6797 173.074 16.2393 172.143 15.3584C171.212 14.4704 170.746 13.3997 170.746 12.1465V3.53125H171.52V12.1465C171.52 13.1849 171.906 14.0729 172.68 14.8105C173.46 15.541 174.398 15.9062 175.494 15.9062C176.583 15.9062 177.517 15.541 178.298 14.8105C179.078 14.0729 179.469 13.1849 179.469 12.1465ZM181.016 12.1465V3.53125H181.789V12.1465C181.789 13.2422 181.506 14.2591 180.94 15.1973C180.375 16.1283 179.608 16.8659 178.642 17.4102C177.675 17.9544 176.626 18.2266 175.494 18.2266C174.363 18.2266 173.313 17.9544 172.347 17.4102C171.38 16.8659 170.614 16.1283 170.048 15.1973C169.482 14.2591 169.199 13.2422 169.199 12.1465V3.53125H169.973V12.1465C169.973 13.099 170.22 13.9834 170.714 14.7998C171.208 15.6162 171.878 16.2643 172.723 16.7441C173.575 17.2168 174.499 17.4531 175.494 17.4531C176.49 17.4531 177.41 17.2168 178.255 16.7441C179.107 16.2643 179.78 15.6162 180.274 14.7998C180.769 13.9834 181.016 13.099 181.016 12.1465ZM182.562 12.1465V3.53125H183.336V12.1465C183.336 13.1777 183.128 14.166 182.713 15.1113C182.298 16.0495 181.739 16.8587 181.037 17.5391C180.335 18.2194 179.501 18.7601 178.534 19.1611C177.567 19.5693 176.554 19.7734 175.494 19.7734C174.434 19.7734 173.421 19.5693 172.454 19.1611C171.487 18.7601 170.653 18.2194 169.951 17.5391C169.249 16.8587 168.691 16.0495 168.275 15.1113C167.86 14.166 167.652 13.1777 167.652 12.1465V3.53125H168.426V12.1465C168.426 13.3783 168.741 14.5205 169.371 15.5732C170.008 16.626 170.868 17.4603 171.949 18.0762C173.038 18.6921 174.219 19 175.494 19C176.769 19 177.947 18.6921 179.028 18.0762C180.117 17.4603 180.976 16.626 181.606 15.5732C182.244 14.5205 182.562 13.3783 182.562 12.1465ZM192.392 11.6416H191.167C189.663 11.6416 188.507 11.3372 187.697 10.7285C186.888 10.1126 186.483 9.26758 186.483 8.19336C186.483 7.19076 186.96 6.35645 187.912 5.69043C188.865 5.01725 190.2 4.68066 191.919 4.68066C193.065 4.68066 194.132 4.83822 195.12 5.15332C196.116 5.46842 196.943 5.91243 197.602 6.48535L197 6.96875C196.413 6.48893 195.675 6.11654 194.787 5.85156C193.899 5.58659 192.943 5.4541 191.919 5.4541C190.408 5.4541 189.251 5.71191 188.449 6.22754C187.654 6.74316 187.257 7.39844 187.257 8.19336C187.257 9.05273 187.583 9.71517 188.234 10.1807C188.893 10.639 189.871 10.8682 191.167 10.8682H192.349C193.874 10.8682 195.041 11.1761 195.851 11.792C196.667 12.4007 197.075 13.2422 197.075 14.3164C197.075 15.319 196.599 16.1569 195.646 16.8301C194.694 17.4961 193.358 17.8291 191.64 17.8291C190.494 17.8291 189.423 17.6715 188.428 17.3564C187.439 17.0413 186.616 16.5973 185.957 16.0244L186.559 15.541C187.146 16.0208 187.883 16.3932 188.771 16.6582C189.66 16.9232 190.616 17.0557 191.64 17.0557C193.151 17.0557 194.304 16.7979 195.099 16.2822C195.901 15.7666 196.302 15.1113 196.302 14.3164C196.302 13.457 195.972 12.7982 195.313 12.3398C194.662 11.8743 193.688 11.6416 192.392 11.6416ZM192.392 13.1885H191.167C189.176 13.1885 187.64 12.7373 186.559 11.835C185.477 10.9255 184.937 9.71159 184.937 8.19336C184.937 7.4987 185.09 6.84701 185.398 6.23828C185.706 5.62956 186.147 5.09603 186.72 4.6377C187.3 4.1722 188.037 3.80697 188.933 3.54199C189.828 3.26986 190.823 3.13379 191.919 3.13379C193.301 3.13379 194.594 3.34505 195.797 3.76758C197 4.18294 198.003 4.7666 198.805 5.51855L198.182 5.98047C197.451 5.32161 196.538 4.81315 195.442 4.45508C194.347 4.08984 193.172 3.90723 191.919 3.90723C189.985 3.90723 188.467 4.31543 187.364 5.13184C186.261 5.94824 185.71 6.96875 185.71 8.19336C185.71 9.48958 186.183 10.5173 187.128 11.2764C188.073 12.0355 189.42 12.415 191.167 12.415H192.349C194.468 12.415 195.528 13.0488 195.528 14.3164C195.528 14.8893 195.202 15.362 194.551 15.7344C193.906 16.0996 192.936 16.2822 191.64 16.2822C190.73 16.2822 189.885 16.1784 189.104 15.9707C188.324 15.7559 187.679 15.4515 187.171 15.0576L187.783 14.585C188.678 15.2008 189.964 15.5088 191.64 15.5088C192.714 15.5088 193.502 15.3978 194.003 15.1758C194.504 14.9538 194.755 14.6673 194.755 14.3164C194.755 13.9082 194.579 13.6182 194.229 13.4463C193.878 13.2744 193.265 13.1885 192.392 13.1885ZM192.392 10.0947H191.167C189.076 10.0947 188.03 9.46094 188.03 8.19336C188.03 7.62044 188.353 7.15137 188.997 6.78613C189.649 6.41374 190.623 6.22754 191.919 6.22754C192.828 6.22754 193.674 6.33496 194.454 6.5498C195.235 6.75749 195.879 7.05827 196.388 7.45215L195.775 7.9248C194.88 7.30892 193.595 7.00098 191.919 7.00098C190.845 7.00098 190.057 7.11198 189.556 7.33398C189.054 7.55599 188.804 7.84245 188.804 8.19336C188.804 8.60156 188.979 8.8916 189.33 9.06348C189.681 9.23535 190.293 9.32129 191.167 9.32129H192.392C194.382 9.32129 195.919 9.77604 197 10.6855C198.081 11.5879 198.622 12.7982 198.622 14.3164C198.622 15.0111 198.468 15.6628 198.16 16.2715C197.852 16.8802 197.408 17.4173 196.828 17.8828C196.255 18.3411 195.521 18.7064 194.626 18.9785C193.731 19.2435 192.735 19.376 191.64 19.376C190.257 19.376 188.965 19.1683 187.762 18.7529C186.559 18.3304 185.556 17.7432 184.754 16.9912L185.377 16.5293C186.107 17.1882 187.021 17.7002 188.116 18.0654C189.212 18.4235 190.386 18.6025 191.64 18.6025C193.573 18.6025 195.091 18.1943 196.194 17.3779C197.297 16.5615 197.849 15.541 197.849 14.3164C197.849 13.0202 197.376 11.9925 196.431 11.2334C195.485 10.4743 194.139 10.0947 192.392 10.0947Z" fill="white"/>
</svg>
